# xmcd
#
# Track frame offsets: 
#        150
#        16044
#        31255
#        47060
#        58916
#        80426
#        97732
#        110917
#        130950
#        153085
#        169171
#        187848
#        202672
#
# Disc length: 2937 seconds
#
# Revision: 0
# Processed by: cddbd v1.5.2PL0 Copyright (c) Steve Scherf et al.
# Submitted via: ExactAudioCopy v1.0b4
#
DISCID=980b770d
DTITLE=Andy T Band Featuring Alabama Mike - Double Strike
DYEAR=2017
DGENRE=Blues
TTITLE0=I Want You Bad
TTITLE1=Somebody Like You
TTITLE2=Deep Inside
TTITLE3=Sweet Thing
TTITLE4=I Feel So Bad
TTITLE5=Juanita
TTITLE6=Mudslide
TTITLE7=Sad Times
TTITLE8=Doin' Hard Time
TTITLE9=Drunk Or Sober
TTITLE10=I Was Gonna Leave You
TTITLE11=Dream About You
TTITLE12=Where Did Your Love Go Wrong
EXTD=
EXTT0=
EXTT1=
EXTT2=
EXTT3=
EXTT4=
EXTT5=
EXTT6=
EXTT7=
EXTT8=
EXTT9=
EXTT10=
EXTT11=
EXTT12=
PLAYORDER=
